<?xml version="1.0" encoding="utf-8"?>
<!DOCTYPE svg PUBLIC "-//W3C//DTD SVG 1.1//EN" "http://www.w3.org/Graphics/SVG/1.1/DTD/svg11.dtd">
<svg version="1.1" id="レイヤー_1" xmlns="http://www.w3.org/2000/svg" xmlns:xlink="http://www.w3.org/1999/xlink" x="0px"
	 y="0px" width="1000px" height="455.24px" viewBox="0 0 1000 455.24" enable-background="new 0 0 1000 455.24"
	 xml:space="preserve">
<g>
	<g>
		<path fill="#FFFFFF" d="M128.771,43.99c-7.502-4.772-23.868-11.933-45.69-11.933c-36.144,0-49.783,22.164-49.783,40.916
			c0,25.572,15.685,38.529,50.464,53.192c41.94,17.73,63.42,39.211,63.42,76.377c0,41.257-30.005,72.966-85.923,72.966
			c-23.528,0-49.101-7.159-62.057-16.365l7.842-23.526c13.98,9.205,34.779,16.023,55.92,16.023
			c34.779,0,55.236-18.752,55.236-46.711c0-25.574-13.979-41.257-47.735-54.896c-39.211-14.661-65.808-37.507-65.808-73.31
			c0-39.553,32.052-68.534,79.447-68.534c24.55,0,43.303,6.137,53.192,12.274L128.771,43.99z"/>
		<path fill="#FFFFFF" d="M540.284,227.432c0,15.343,0.343,31.371,2.729,44.327h-25.915l-2.728-23.868h-1.022
			c-9.548,14.662-28.642,27.959-54.896,27.959c-35.461,0-54.214-25.913-54.214-52.85c0-44.666,38.87-68.875,107.745-68.534
			c0-15.685,0-51.146-42.279-51.146c-16.026,0-32.733,4.433-45.349,13.298l-6.819-19.435c15.002-9.887,35.801-15.685,56.601-15.685
			c52.507,0,66.147,37.166,66.147,73.991V227.432z M512.324,175.264c-35.12,0-79.105,5.115-79.105,44.327
			c0,23.868,15.004,34.438,32.052,34.438c27.618,0,47.053-21.14,47.053-43.645V175.264z"/>
		<path fill="#FFFFFF" d="M666.092,109.798c-3.066-0.341-6.14-0.681-10.228-0.681c-30.688,0-46.374,30.346-46.374,61.714v100.928
			h-28.299v-130.25c0-19.776-0.343-37.848-1.365-55.579h24.891l1.364,35.803h1.022c8.183-23.187,27.621-39.894,50.462-39.894
			c3.073,0,5.46,0.683,8.526,1.024V109.798z"/>
		<path fill="#FFFFFF" d="M817.813,264.939c-8.183,4.092-26.593,10.569-50.462,10.569c-53.191,0-88.311-37.847-88.311-94.789
			c0-57.283,37.849-99.223,95.129-99.223c20.803,0,37.505,6.137,44.666,9.889l-7.161,22.844c-7.84-4.433-20.117-9.546-38.185-9.546
			c-42.965,0-65.47,34.438-65.47,74.332c0,45.008,26.936,73.309,64.448,73.309c18.409,0,31.023-5.115,40.235-9.207L817.813,264.939z
			"/>
		<path fill="#FFFFFF" d="M999.201,271.759h-28.3V161.966c0-30.346-10.913-56.601-42.965-56.601
			c-21.826,0-49.098,18.072-49.098,52.168v114.226h-28.301V-1.017h28.301v115.589h0.679c12.278-20.459,34.776-33.075,57.623-33.075
			c22.848,0,62.061,13.98,62.061,77.06V271.759z"/>
	</g>
	<path fill="#FFFFFF" d="M377.022,300.589l-17.583,9.05l-20.484-39.784c42.155-29.226,57.169-85.856,33.054-132.698
		c-26.236-50.959-88.811-70.997-139.774-44.774c-50.959,26.24-71.003,88.818-44.773,139.777
		c24.118,46.842,78.934,67.531,127.217,50.193l20.467,39.795l-17.586,9.047l63.334,123.029l59.465-30.61L377.022,300.589z
		 M317.214,257.455c-40.212,20.687-89.575,4.882-110.264-35.319c-20.699-40.202-4.892-89.575,35.31-110.264
		c40.198-20.699,89.571-4.892,110.27,35.313c3.94,7.662,6.542,15.646,7.917,23.711h-104.42v18h105.402
		C359.94,217.016,344.052,243.628,317.214,257.455z"/>
</g>
<path fill="#CF131B" d="M608.28,37.433c0,8.879-7.194,16.08-16.082,16.08c-8.882,0-16.083-7.201-16.083-16.08
	c0-8.885,7.201-16.083,16.083-16.083C601.086,21.35,608.28,28.547,608.28,37.433z"/>
</svg>
